<svg xmlns="http://www.w3.org/2000/svg" viewBox="0 0 200 60" role="img" aria-label="msyx wordmark exploration A — sommets aigus">
  <title>msyx wordmark exploration A — sommets aigus</title>
  <defs>
    <linearGradient id="msyx-grad-exp-a" x1="0" y1="0" x2="0" y2="1">
      <stop offset="0%" stop-color="#10b981"/>
      <stop offset="45%" stop-color="#3b82f6"/>
      <stop offset="100%" stop-color="#8b5cf6"/>
    </linearGradient>
  </defs>
  <!-- Exploration A : sommets aigus (pics de montagne prononcés, blob resserré en bas) -->
  <path fill="url(#msyx-grad-exp-a)" fill-rule="evenodd" d="
    M 30 2
    C 17 2 4 10 4 24
    C 4 35 10 44 17 50
    C 21 54 25.5 58 30 58
    C 34.5 58 39 54 43 50
    C 50 44 56 35 56 24
    C 56 10 43 2 30 2 Z
    M 12 46
    L 17 21
    L 23 37
    L 30 14
    L 37 37
    L 43 21
    L 48 46
    L 43 46
    L 37 28
    L 30 51
    L 23 28
    L 17 46 Z
  "/>
  <text x="68" y="38"
    font-family="'Space Grotesk', system-ui, sans-serif"
    font-size="22"
    font-weight="700"
    letter-spacing="-0.5"
    fill="currentColor">msyx</text>
</svg>
