<svg xmlns="http://www.w3.org/2000/svg" viewBox="0 0 1475 1562" role="img" aria-label="msyx dark">
  <title>msyx</title>
  <defs>
    <linearGradient id="msyx-grad-dark" gradientUnits="objectBoundingBox" x1="0" y1="0" x2="0" y2="1">
      <stop offset="0%" stop-color="#3eb89d"/>
      <stop offset="40%" stop-color="#4ab695"/>
      <stop offset="55%" stop-color="#3a6cb8"/>
      <stop offset="100%" stop-color="#5b3eaa"/>
    </linearGradient>
  </defs>
  <path fill="url(#msyx-grad-dark)" d="M8720 15560c-862-55-1580-230-2555-620-969-388-2128-979-2945-1503-861-551-1596-1221-2158-1965-351-464-650-1024-807-1512-284-882-269-1731 46-2577 150-403 409-928 685-1389 463-775 1294-1931 2058-2863 637-778 1276-1402 2016-1970C6071 385 6640 123 7525 23c181-20 574-23 720-4 597 74 1104 283 1765 726 722 484 1403 1118 1884 1755 442 585 845 1268 1356 2295 576 1161 892 1952 1119 2810 185 698 326 1590 371 2342 13 223 13 738 0 935-40 577-168 1152-377 1683-498 1265-1397 2149-2663 2620-496 184-1061 299-1770 361-215 18-996 27-1210 14" transform="matrix(.1 0 0 -.1 0 1562)"/>
  <!-- M en double-pic de montagne — séparateur blanc en zigzag horizontal entre W vert (haut) et M bleu (bas) -->
  <path fill="#ffffff" d="M220 1100 L430 470 L630 880 L750 320 L870 880 L1070 470 L1280 1100 L1090 1100 L985 815 L870 1140 L750 720 L630 1140 L515 815 L410 1100 Z"/>
</svg>
