<svg xmlns="http://www.w3.org/2000/svg" viewBox="0 0 200 60" role="img" aria-label="msyx Design System">
  <title>msyx Design System</title>
  <defs>
    <linearGradient id="msyx-grad-dark" x1="0" y1="0" x2="0" y2="1">
      <stop offset="0%" stop-color="#10b981"/>
      <stop offset="45%" stop-color="#3b82f6"/>
      <stop offset="100%" stop-color="#8b5cf6"/>
    </linearGradient>
  </defs>
  <!-- Variante fond SOMBRE — contraste optimisé glassmorphism -->
  <path fill="url(#msyx-grad-dark)" fill-rule="evenodd" d="
    M 30 2
    C 16 2 3 11 3 25
    C 3 36 9 45 16 51
    C 20 55 25 58 30 58
    C 35 58 40 55 44 51
    C 51 45 57 36 57 25
    C 57 11 44 2 30 2 Z
    M 13 44
    L 18 23
    L 24 36
    L 30 17
    L 36 36
    L 42 23
    L 47 44
    L 42 44
    L 36 30
    L 30 49
    L 24 30
    L 18 44 Z
  "/>
  <!-- Wordmark en blanc pour fond sombre -->
  <text x="68" y="38"
    font-family="'Space Grotesk', system-ui, sans-serif"
    font-size="22"
    font-weight="700"
    letter-spacing="-0.5"
    fill="#f1f5f9">msyx</text>
</svg>
